<svg xmlns="http://www.w3.org/2000/svg" width="1348.99" height="285.19"><path d="M117.5 228.49H54.69V56.7h117.94v50.5H117.5v14.11h55.14v48.3H117.5v58.88zm-56.7-6.11h50.58v-58.89h55.14v-36.08h-55.14v-26.33h55.14V62.81H60.8v159.57zm250.78 6.11H194.67V56.7h62.81v112.95h54.11v58.84zm-110.8-6.11h104.69v-46.63h-54.11V62.81h-50.58v159.57zm250.1 6.11H333.62V56.7h117.26v50.5h-54.45v11.25h54.45v48.3h-54.45V178h54.45v50.49zm-111.15-6.11h105.04V184.1h-54.45v-23.47h54.45v-36.08h-54.45v-23.47h54.45V62.81H339.73v159.57zm312.38 6.11h-70.98l-19.62-31.55-19.62 31.55h-70.98l54.9-86.56-54.02-85.23h70.98l18.74 30.22 18.74-30.22h70.98l-54.02 85.24 54.9 86.55zm-67.59-6.11h56.47l-51.02-80.45 50.14-79.13h-56.47L561.5 98.5l-22.14-35.7H482.9l50.14 79.13-51.02 80.45h56.47l23.01-37.01 23.02 37.01zm294.73 6.11h-62.81V56.7h80.63c21.4 0 37.03 5.66 49.19 17.82 11.49 11.49 17.81 27.4 17.81 44.79s-6.33 33.3-17.81 44.79c-12.16 12.16-27.79 17.82-49.19 17.82h-17.82v46.57zm-56.69-6.11h50.58V175.8h23.93c19.68 0 33.93-5.09 44.87-16.03 10.48-10.48 16.02-24.48 16.02-40.47s-5.54-29.99-16.03-40.47C931 67.9 916.75 62.81 897.07 62.81h-74.52v159.57zm62.21-84.86h-11.63v-36.44h11.63c9.17 0 13.28 1.86 17.29 5.06 3.5 2.96 5.32 7.49 5.32 13.15s-1.82 10.19-5.26 13.1l-.07.05c-4 3.22-8.12 5.08-17.28 5.08zm-5.52-6.11h5.52c8.15 0 10.72-1.53 13.44-3.7 2.03-1.74 3.06-4.57 3.06-8.41 0-3.86-1.04-6.7-3.09-8.44-2.66-2.13-5.23-3.67-13.41-3.67h-5.52v24.22zm382.52 97.08h-62.81V115.55h-32.52V56.7h127.85v58.85h-32.52v112.94zm-56.69-6.11h50.58V109.43h32.52V62.81h-115.63v46.63h32.52v112.94zm-139.85 9.63c-49.3 0-89.42-40.11-89.42-89.42s40.11-89.42 89.42-89.42 89.42 40.11 89.42 89.42-40.12 89.42-89.42 89.42zm0-172.72c-45.93 0-83.31 37.37-83.31 83.31s37.37 83.31 83.31 83.31c45.93 0 83.31-37.37 83.31-83.31s-37.37-83.31-83.31-83.31zm0 119.82c-20.13 0-36.51-16.38-36.51-36.51s16.38-36.51 36.51-36.51 36.51 16.38 36.51 36.51-16.38 36.51-36.51 36.51zm0-66.92c-16.76 0-30.4 13.64-30.4 30.4s13.64 30.4 30.4 30.4 30.4-13.64 30.4-30.4-13.64-30.4-30.4-30.4zm-339.8 119.82c-43.13 0-67.76-18.52-68.79-19.31l-2.21-1.7 27.69-43.74 2.5 1.33c18.97 10.11 34.04 12.23 43.34 12.23 2.88 0 5.23-2.34 5.23-5.23 0-3.82-3.56-4.94-5.69-5.26l-7.34-1.12c-36.87-5.23-58.77-28.38-57.11-60.39.87-16.88 8.06-31.13 20.78-41.22 11.72-9.29 27.63-14.41 44.81-14.41 40.39 0 64.79 15.79 65.81 16.46l2.51 1.65-26.42 41.55-2.5-1.32c-12.25-6.5-28.46-10.39-39.4-9.47-2.29.19-4.61 2.04-4.61 5.19 0 2.9 1.92 4.67 5.7 5.26l.12.02s6.99 1.38 11.53 2.24c35.33 6.74 53.63 25.99 54.42 57.22h.03c0 .34 0 .68-.01 1.02 0 .37.01.74.01 1.11h-.03c-1.06 35.25-28.44 57.89-70.37 57.89zm-62.76-22.6c6.91 4.38 29.07 16.49 62.76 16.49 19.5 0 35.84-5.15 47.24-14.89 10.92-9.33 16.8-22.45 17.04-38-.41-28.87-16.6-45.95-49.48-52.23-4.31-.82-10.83-2.11-11.5-2.24-6.77-1.08-10.81-5.3-10.81-11.29 0-5.94 4.39-10.79 10.21-11.28 11.44-.97 27.28 2.57 40.26 8.88l20.1-31.61c-7.16-3.89-28.68-13.94-59.84-13.94-39.31 0-58.2 25.03-59.49 49.84-1.77 34.16 25.65 50.31 51.9 54.03l7.37 1.13c6.71 1.02 10.88 5.35 10.88 11.3 0 6.25-5.09 11.34-11.34 11.34-9.57 0-24.77-2.06-43.69-11.64l-21.61 34.11z"/><path d="M1342.88 6.11v272.97H6.11V6.11h1336.77m6.11-6.11H0v285.19h1348.99V0z"/></svg>